<?xml version="1.0" encoding="utf-8"?>
<!-- Generator: Adobe Illustrator 15.0.0, SVG Export Plug-In . SVG Version: 6.00 Build 0)  -->
<!DOCTYPE svg PUBLIC "-//W3C//DTD SVG 1.1//EN" "http://www.w3.org/Graphics/SVG/1.1/DTD/svg11.dtd">
<svg version="1.1" id="Слой_1" xmlns="http://www.w3.org/2000/svg" xmlns:xlink="http://www.w3.org/1999/xlink" x="0px" y="0px"
	 width="160px" height="78px" viewBox="0 0 160 78" enable-background="new 0 0 160 78" xml:space="preserve">
<g>
	<linearGradient id="SVGID_1_" gradientUnits="userSpaceOnUse" x1="80.0005" y1="78.0005" x2="80.0005" y2="9.765625e-004">
		<stop  offset="0" style="stop-color:#FF8F00"/>
		<stop  offset="1" style="stop-color:#FFA300"/>
	</linearGradient>
	<path fill="url(#SVGID_1_)" d="M160,2.622V0H39.673c0,2.896-2.349,5.243-5.247,5.243c-2.896,0-5.244-2.347-5.244-5.243H0v2.621
		c1.968,0,2.951,1.322,2.951,2.95c0,1.629-0.983,2.949-2.951,2.949v2.459c1.968,0,2.951,1.32,2.951,2.948
		c0,1.63-0.983,2.95-2.951,2.95v2.458c1.968,0,2.951,1.32,2.951,2.95c0,1.628-0.983,2.948-2.951,2.948v2.459
		c1.968,0,2.951,1.32,2.951,2.949c0,1.63-0.983,2.95-2.951,2.95v2.457c1.968,0,2.951,1.32,2.951,2.95
		c0,1.629-0.983,2.949-2.951,2.949v2.458c1.968,0,2.951,1.319,2.951,2.949S1.968,50.307,0,50.307v2.458
		c1.968,0,2.951,1.321,2.951,2.949S1.968,58.664,0,58.664v2.458c1.968,0,2.951,1.321,2.951,2.95c0,1.628-0.983,2.949-2.951,2.949
		v2.459c1.968,0,2.951,1.32,2.951,2.948c0,1.629-0.983,2.95-2.951,2.95V78h29.353c-0.108-0.42-0.171-0.858-0.171-1.312
		c0-2.896,2.348-5.243,5.244-5.243c2.898,0,5.247,2.348,5.247,5.243c0,0.453-0.063,0.892-0.172,1.312H160v-2.622
		c-1.311,0-2.949-1.321-2.949-2.95c0-1.628,1.639-2.948,2.949-2.948v-2.459c-1.311,0-2.949-1.321-2.949-2.949
		c0-1.629,1.639-2.95,2.949-2.95v-2.458c-1.311,0-2.949-1.321-2.949-2.949s1.639-2.949,2.949-2.949v-2.458
		c-1.311,0-2.949-1.32-2.949-2.95s1.639-2.949,2.949-2.949V41.95c-1.311,0-2.949-1.32-2.949-2.949c0-1.63,1.639-2.95,2.949-2.95
		v-2.457c-1.311,0-2.949-1.32-2.949-2.95c0-1.629,1.639-2.949,2.949-2.949v-2.459c-1.311,0-2.949-1.32-2.949-2.948
		c0-1.63,1.639-2.95,2.949-2.95v-2.458c-1.311,0-2.949-1.32-2.949-2.95c0-1.628,1.639-2.948,2.949-2.948V8.521
		c-1.311,0-2.949-1.32-2.949-2.949C157.051,3.944,158.689,2.622,160,2.622L160,2.622z"/>
	<linearGradient id="SVGID_2_" gradientUnits="userSpaceOnUse" x1="17.0498" y1="78.0005" x2="17.0498" y2="9.765625e-004">
		<stop  offset="0" style="stop-color:#FF8F00"/>
		<stop  offset="1" style="stop-color:#FFA300"/>
	</linearGradient>
	<path fill="url(#SVGID_2_)" d="M34.1,5.244c-2.623,0-4.918-2.347-4.918-5.243H0v2.621c1.968,0,2.951,1.322,2.951,2.95
		c0,1.629-0.983,2.949-2.951,2.949v2.459c1.968,0,2.951,1.32,2.951,2.948c0,1.63-0.983,2.95-2.951,2.95v2.458
		c1.968,0,2.951,1.32,2.951,2.95c0,1.628-0.983,2.948-2.951,2.948v2.459c1.968,0,2.951,1.32,2.951,2.949
		c0,1.63-0.983,2.95-2.951,2.95v2.457c1.968,0,2.951,1.32,2.951,2.95c0,1.629-0.983,2.949-2.951,2.949v2.458
		c1.968,0,2.951,1.319,2.951,2.949S1.968,50.307,0,50.307v2.458c1.968,0,2.951,1.321,2.951,2.949S1.968,58.664,0,58.664v2.458
		c1.968,0,2.951,1.321,2.951,2.95c0,1.628-0.983,2.949-2.951,2.949v2.459c1.968,0,2.951,1.32,2.951,2.948
		c0,1.629-0.983,2.95-2.951,2.95V78h29.353c-0.108-0.42-0.336-0.858-0.336-1.312c0-2.896,2.46-5.243,5.083-5.243V5.244L34.1,5.244z"
		/>
	<g>
		<g>
			<polygon fill-rule="evenodd" clip-rule="evenodd" fill="#CFCFCF" points="34.078,62.924 34.755,62.924 34.755,68.824 
				34.078,68.824 34.078,62.924 			"/>
			<polygon fill-rule="evenodd" clip-rule="evenodd" fill="#939090" points="34.078,68.824 34.755,68.824 34.755,69.48 
				34.078,69.48 34.078,68.824 			"/>
			<polygon fill-rule="evenodd" clip-rule="evenodd" fill="#F6F6F6" points="34.734,68.824 35.41,68.824 35.41,69.48 34.734,69.48 
				34.734,68.824 			"/>
			<polygon fill-rule="evenodd" clip-rule="evenodd" fill="#FFFFFF" points="34.734,62.924 35.41,62.924 35.41,68.824 
				34.734,68.824 34.734,62.924 			"/>
			<polygon fill-rule="evenodd" clip-rule="evenodd" fill="#939090" points="34.078,62.268 34.755,62.268 34.755,62.924 
				34.078,62.924 34.078,62.268 			"/>
		</g>
		<g>
			<polygon fill-rule="evenodd" clip-rule="evenodd" fill="#CFCFCF" points="34.078,51.782 34.755,51.782 34.755,57.681 
				34.078,57.681 34.078,51.782 			"/>
			<polygon fill-rule="evenodd" clip-rule="evenodd" fill="#939090" points="34.078,57.681 34.755,57.681 34.755,58.337 
				34.078,58.337 34.078,57.681 			"/>
			<polygon fill-rule="evenodd" clip-rule="evenodd" fill="#F6F6F6" points="34.734,57.681 35.41,57.681 35.41,58.337 
				34.734,58.337 34.734,57.681 			"/>
			<polygon fill-rule="evenodd" clip-rule="evenodd" fill="#FFFFFF" points="34.734,51.782 35.41,51.782 35.41,57.681 
				34.734,57.681 34.734,51.782 			"/>
			<polygon fill-rule="evenodd" clip-rule="evenodd" fill="#939090" points="34.078,51.125 34.755,51.125 34.755,51.782 
				34.078,51.782 34.078,51.125 			"/>
		</g>
		<g>
			<polygon fill-rule="evenodd" clip-rule="evenodd" fill="#CFCFCF" points="34.078,40.638 34.755,40.638 34.755,46.538 
				34.078,46.538 34.078,40.638 			"/>
			<polygon fill-rule="evenodd" clip-rule="evenodd" fill="#939090" points="34.078,46.538 34.755,46.538 34.755,47.194 
				34.078,47.194 34.078,46.538 			"/>
			<polygon fill-rule="evenodd" clip-rule="evenodd" fill="#F6F6F6" points="34.734,46.538 35.41,46.538 35.41,47.194 
				34.734,47.194 34.734,46.538 			"/>
			<polygon fill-rule="evenodd" clip-rule="evenodd" fill="#FFFFFF" points="34.734,40.638 35.41,40.638 35.41,46.538 
				34.734,46.538 34.734,40.638 			"/>
			<polygon fill-rule="evenodd" clip-rule="evenodd" fill="#939090" points="34.078,39.982 34.755,39.982 34.755,40.638 
				34.078,40.638 34.078,39.982 			"/>
		</g>
		<g>
			<polygon fill-rule="evenodd" clip-rule="evenodd" fill="#CFCFCF" points="34.078,29.496 34.755,29.496 34.755,35.395 
				34.078,35.395 34.078,29.496 			"/>
			<polygon fill-rule="evenodd" clip-rule="evenodd" fill="#939090" points="34.078,35.395 34.755,35.395 34.755,36.051 
				34.078,36.051 34.078,35.395 			"/>
			<polygon fill-rule="evenodd" clip-rule="evenodd" fill="#F6F6F6" points="34.734,35.395 35.41,35.395 35.41,36.051 
				34.734,36.051 34.734,35.395 			"/>
			<polygon fill-rule="evenodd" clip-rule="evenodd" fill="#FFFFFF" points="34.734,29.496 35.41,29.496 35.41,35.395 
				34.734,35.395 34.734,29.496 			"/>
			<polygon fill-rule="evenodd" clip-rule="evenodd" fill="#939090" points="34.078,28.839 34.755,28.839 34.755,29.496 
				34.078,29.496 34.078,28.839 			"/>
		</g>
		<g>
			<polygon fill-rule="evenodd" clip-rule="evenodd" fill="#CFCFCF" points="34.078,18.353 34.755,18.353 34.755,24.252 
				34.078,24.252 34.078,18.353 			"/>
			<polygon fill-rule="evenodd" clip-rule="evenodd" fill="#939090" points="34.078,24.252 34.755,24.252 34.755,24.909 
				34.078,24.909 34.078,24.252 			"/>
			<polygon fill-rule="evenodd" clip-rule="evenodd" fill="#F6F6F6" points="34.734,24.252 35.41,24.252 35.41,24.909 
				34.734,24.909 34.734,24.252 			"/>
			<polygon fill-rule="evenodd" clip-rule="evenodd" fill="#FFFFFF" points="34.734,18.353 35.41,18.353 35.41,24.252 
				34.734,24.252 34.734,18.353 			"/>
			<polygon fill-rule="evenodd" clip-rule="evenodd" fill="#939090" points="34.078,17.697 34.755,17.697 34.755,18.353 
				34.078,18.353 34.078,17.697 			"/>
		</g>
		<g>
			<polygon fill-rule="evenodd" clip-rule="evenodd" fill="#CFCFCF" points="34.078,7.21 34.755,7.21 34.755,13.11 34.078,13.11 
				34.078,7.21 			"/>
			<polygon fill-rule="evenodd" clip-rule="evenodd" fill="#939090" points="34.078,13.11 34.755,13.11 34.755,13.766 
				34.078,13.766 34.078,13.11 			"/>
			<polygon fill-rule="evenodd" clip-rule="evenodd" fill="#F6F6F6" points="34.734,13.11 35.41,13.11 35.41,13.766 34.734,13.766 
				34.734,13.11 			"/>
			<polygon fill-rule="evenodd" clip-rule="evenodd" fill="#FFFFFF" points="34.734,7.21 35.41,7.21 35.41,13.11 34.734,13.11 
				34.734,7.21 			"/>
			<polygon fill-rule="evenodd" clip-rule="evenodd" fill="#939090" points="34.078,6.554 34.755,6.554 34.755,7.21 34.078,7.21 
				34.078,6.554 			"/>
		</g>
	</g>
	<path fill="#1D1D1B" d="M19.607,28.283c-1.22,0-2.085-0.945-2.085-2.125c0-1.218,0.904-2.163,2.163-2.163
		c1.299,0,2.126,0.945,2.126,2.163C21.85,27.337,20.984,28.283,19.607,28.283L19.607,28.283z M21.417,50.543h-3.462V31.507h3.462
		V50.543L21.417,50.543z M50.847,26.945v23.599h-3.463V26.945h-8.066v-2.909h19.634v2.909H50.847L50.847,26.945z M62.964,28.283
		c-1.219,0-2.085-0.945-2.085-2.125c0-1.218,0.904-2.163,2.164-2.163c1.298,0,2.125,0.945,2.125,2.163
		C65.207,27.337,64.341,28.283,62.964,28.283L62.964,28.283z M64.775,50.543h-3.464V31.507h3.464V50.543L64.775,50.543z
		 M83.385,34.771c-0.826-0.471-2.125-0.904-4.015-0.904c-4.367,0-6.728,3.226-6.728,7.197c0,4.404,2.833,7.12,6.611,7.12
		c1.967,0,3.265-0.512,4.25-0.944l0.589,2.595c-0.905,0.473-2.911,1.102-5.469,1.102c-5.745,0-9.483-3.893-9.483-9.715
		c0-5.859,4.014-10.106,10.229-10.106c2.047,0,3.856,0.511,4.802,0.981L83.385,34.771L83.385,34.771z M104.119,50.543h-4.211
		l-6.57-9.125l-1.77,1.966v7.159h-3.424V22.62h3.424v17.619h0.077c0.473-0.668,1.143-1.495,1.692-2.163l5.588-6.568h4.17
		l-7.357,7.827L104.119,50.543L104.119,50.543z M121.902,41.655h-13.378c0.079,4.68,3.069,6.606,6.531,6.606
		c2.479,0,3.975-0.432,5.272-0.983l0.591,2.479c-1.221,0.551-3.306,1.18-6.334,1.18c-5.863,0-9.365-3.854-9.365-9.597
		c0-5.741,3.384-10.266,8.932-10.266c6.217,0,7.868,5.468,7.868,8.968C122.02,40.75,121.942,41.3,121.902,41.655L121.902,41.655z
		 M113.876,33.553c-3.502,0-5.036,3.225-5.312,5.623h10.111C118.716,36.974,117.771,33.553,113.876,33.553L113.876,33.553z
		 M130.479,34.142v10.266c0,2.359,0.669,3.697,2.597,3.697c0.905,0,1.574-0.118,2.007-0.237l0.157,2.597
		c-0.669,0.275-1.73,0.472-3.069,0.472c-1.612,0-2.911-0.512-3.737-1.455c-0.983-1.022-1.338-2.714-1.338-4.956V34.142h-2.951
		v-2.635h2.951v-4.563l3.384-0.905v5.468h4.958v2.635H130.479L130.479,34.142z"/>
	<path fill="#FFFFFF" d="M75.328,60.738h-5.35c0.031,1.871,1.226,2.644,2.611,2.644c0.991,0,1.59-0.174,2.109-0.393l0.236,0.989
		c-0.488,0.222-1.322,0.473-2.534,0.473c-2.345,0-3.746-1.542-3.746-3.839c0-2.298,1.354-4.106,3.572-4.106
		c2.487,0,3.148,2.187,3.148,3.587C75.376,60.375,75.345,60.595,75.328,60.738L75.328,60.738z M72.119,57.497
		c-1.402,0-2.015,1.29-2.126,2.25h4.044C74.054,58.866,73.676,57.497,72.119,57.497L72.119,57.497z M79.373,57.543
		c-0.818,0-1.274,0.471-1.274,1.038c0,0.63,0.456,0.913,1.448,1.291c1.322,0.503,1.998,1.165,1.998,2.297
		c0,1.116-0.724,1.967-2.03,2.203l-0.44,0.708c0.582,0.078,1.102,0.486,1.102,1.084c0,0.929-0.756,1.273-1.638,1.273
		c-0.377,0-0.802-0.108-1.069-0.267l0.236-0.677c0.251,0.158,0.565,0.236,0.85,0.236c0.346,0,0.676-0.125,0.676-0.504
		c-0.015-0.407-0.487-0.598-1.227-0.66l0.629-1.116c-0.802-0.016-1.558-0.205-2.077-0.519l0.347-1.056
		c0.409,0.269,1.134,0.551,1.826,0.551c1.007,0,1.479-0.503,1.479-1.133c0-0.659-0.393-1.021-1.416-1.399
		c-1.37-0.487-2.015-1.243-2.015-2.155c0-1.227,0.992-2.234,2.628-2.234c0.771,0,1.448,0.22,1.873,0.473l-0.346,1.006
		C80.632,57.795,80.082,57.543,79.373,57.543L79.373,57.543z M84.991,57.733v4.105c0,0.945,0.268,1.479,1.039,1.479
		c0.362,0,0.63-0.048,0.802-0.095l0.063,1.039c-0.267,0.11-0.692,0.188-1.227,0.188c-0.646,0-1.165-0.205-1.496-0.582
		c-0.394-0.409-0.535-1.085-0.535-1.982v-4.153h-1.181v-1.055h1.181v-1.825l1.354-0.361v2.187h1.983v1.055H84.991L84.991,57.733z
		 M89.192,55.389c-0.487,0-0.833-0.379-0.833-0.851c0-0.487,0.362-0.865,0.864-0.865c0.521,0,0.852,0.378,0.852,0.865
		C90.091,55.01,89.744,55.389,89.192,55.389L89.192,55.389z M89.917,64.292h-1.385v-7.614h1.385V64.292L89.917,64.292z
		 M98.651,64.466c-2.062,0-3.65-1.512-3.65-3.918c0-2.548,1.667-4.043,3.776-4.043c2.188,0,3.668,1.589,3.668,3.917
		C102.445,63.24,100.493,64.466,98.651,64.466L98.651,64.466z M98.746,57.543c-1.637,0-2.346,1.511-2.346,2.959
		c0,1.667,0.961,2.925,2.313,2.925c1.322,0,2.314-1.241,2.314-2.957C101.028,59.179,100.383,57.543,98.746,57.543L98.746,57.543z
		 M109.291,64.292v-4.39c0-1.227-0.456-2.249-1.764-2.249c-0.912,0-1.621,0.646-1.857,1.416c-0.063,0.173-0.094,0.409-0.094,0.646
		v4.577h-1.386V58.74c0-0.788-0.015-1.432-0.063-2.062h1.228l0.079,1.26h0.031c0.378-0.725,1.259-1.433,2.518-1.433
		c1.055,0,2.692,0.63,2.692,3.241v4.546H109.291L109.291,64.292z M112.926,64.292V53.124h1.385v11.169H112.926L112.926,64.292z
		 M117.301,55.389c-0.487,0-0.835-0.379-0.835-0.851c0-0.487,0.362-0.865,0.866-0.865c0.519,0,0.85,0.378,0.85,0.865
		C118.198,55.01,117.851,55.389,117.301,55.389L117.301,55.389z M118.024,64.292h-1.385v-7.614h1.385V64.292L118.024,64.292z
		 M125.421,64.292v-4.39c0-1.227-0.456-2.249-1.762-2.249c-0.914,0-1.621,0.646-1.857,1.416c-0.063,0.173-0.095,0.409-0.095,0.646
		v4.577h-1.385V58.74c0-0.788-0.017-1.432-0.063-2.062h1.226l0.08,1.26h0.031c0.378-0.725,1.259-1.433,2.519-1.433
		c1.055,0,2.69,0.63,2.69,3.241v4.546H125.421L125.421,64.292z M135.179,60.738h-5.352c0.031,1.871,1.229,2.644,2.613,2.644
		c0.991,0,1.588-0.174,2.109-0.393l0.236,0.989c-0.489,0.222-1.323,0.473-2.536,0.473c-2.345,0-3.744-1.542-3.744-3.839
		c0-2.298,1.353-4.106,3.572-4.106c2.486,0,3.147,2.187,3.147,3.587C135.226,60.375,135.194,60.595,135.179,60.738L135.179,60.738z
		 M131.968,57.497c-1.401,0-2.015,1.29-2.125,2.25h4.046C133.903,58.866,133.526,57.497,131.968,57.497L131.968,57.497z"/>
</g>
</svg>
